<svg width="32" height="32" viewBox="0 0 32 32" fill="red" xmlns="http://www.w3.org/2000/svg">
<circle opacity="0.6" cx="16" cy="16" r="16" fill="#080808"/>
<path fill-rule="evenodd" clip-rule="evenodd" d="M16.0123 10.5717L14.9253 9.48468C12.7774 7.33679 9.29499 7.33679 7.14711 9.48468C4.99922 11.6326 4.99922 15.115 7.14711 17.2629L15.9859 26.1017L15.9877 26.0999L16.0141 26.1262L24.8529 17.2874C27.0008 15.1395 27.0008 11.6571 24.8529 9.50921C22.705 7.36133 19.2226 7.36133 17.0747 9.50921L16.0123 10.5717ZM15.9877 23.2715L20.924 18.3352L22.3748 16.9342L22.3762 16.9356L23.4387 15.8732C24.8055 14.5063 24.8055 12.2903 23.4387 10.9234C22.0719 9.55659 19.8558 9.55659 18.4889 10.9234L16.0134 13.399L16.0061 13.3918L16.005 13.3929L13.5111 10.8989C12.1442 9.53206 9.92815 9.53206 8.56132 10.8989C7.19449 12.2657 7.19449 14.4818 8.56132 15.8486L11.1007 18.3881L11.1025 18.3863L15.9877 23.2715Z" fill="white"/>
</svg>
