<svg width="20" height="20" viewBox="0 0 20 20" fill="none" xmlns="http://www.w3.org/2000/svg">
<path d="M2.66667 6.16665C2.66667 5.61437 3.11438 5.16666 3.66667 5.16666H16.3333C16.8856 5.16666 17.3333 5.61437 17.3333 6.16666V15.5C17.3333 16.0523 16.8856 16.5 16.3333 16.5H3.66667C3.11438 16.5 2.66667 16.0523 2.66667 15.5V6.16665Z" stroke="#080808" stroke-width="2"/>
<path d="M5 3.33333C5 2.8731 5.3731 2.5 5.83333 2.5C6.29357 2.5 6.66667 2.8731 6.66667 3.33333V4.16667H5V3.33333Z" fill="#080808"/>
<path d="M13.3333 3.33333C13.3333 2.8731 13.7064 2.5 14.1667 2.5C14.6269 2.5 15 2.8731 15 3.33333V4.16667H13.3333V3.33333Z" fill="#080808"/>
<path d="M7.5 10.8333L9.16667 12.5L12.5 8.33334" stroke="#080808" stroke-width="2" stroke-linecap="round" stroke-linejoin="round"/>
</svg>
