<svg width="20" height="20" viewBox="0 0 20 20" fill="none" xmlns="http://www.w3.org/2000/svg">
<path d="M2.66667 5.33334C2.66667 4.78106 3.11438 4.33334 3.66667 4.33334H16.3333C16.8856 4.33334 17.3333 4.78106 17.3333 5.33334V14.6667C17.3333 15.219 16.8856 15.6667 16.3333 15.6667H3.66667C3.11438 15.6667 2.66667 15.219 2.66667 14.6667V5.33334Z" stroke="#080808" stroke-width="2"/>
<path d="M5 2.50001C5 2.03977 5.3731 1.66667 5.83333 1.66667C6.29357 1.66667 6.66667 2.03977 6.66667 2.50001V3.33334H5V2.50001Z" fill="#080808"/>
<path d="M13.3333 2.5C13.3333 2.03977 13.7064 1.66667 14.1667 1.66667C14.6269 1.66667 15 2.03977 15 2.5V3.33334H13.3333V2.5Z" fill="#080808"/>
<path fill-rule="evenodd" clip-rule="evenodd" d="M5.83333 5.83333H4.16667V7.5H5.83333V5.83333ZM9.16667 5.83333H7.5V7.5H9.16667V5.83333ZM10.8333 5.83333H12.5V7.5H10.8333V5.83333ZM15.8333 5.83333H14.1667V7.5H15.8333V5.83333Z" fill="#080808"/>
<path opacity="0.4" fill-rule="evenodd" clip-rule="evenodd" d="M5.83333 9.16667H4.16667V10.8333H5.83333V9.16667ZM5.83333 12.5H4.16667V14.1667H5.83333V12.5ZM7.5 9.16667H9.16667V10.8333H7.5V9.16667ZM9.16667 12.5H7.5V14.1667H9.16667V12.5ZM10.8333 9.16667H12.5V10.8333H10.8333V9.16667ZM12.5 12.5H10.8333V14.1667H12.5V12.5ZM14.1667 9.16667H15.8333V10.8333H14.1667V9.16667ZM15.8333 12.5H14.1667V14.1667H15.8333V12.5Z" fill="#080808"/>
</svg>
