<svg width="20" height="20" viewBox="0 0 20 20" fill="none" xmlns="http://www.w3.org/2000/svg">
<path fill-rule="evenodd" clip-rule="evenodd" d="M3.5 17.5C2.94772 17.5 2.5 17.0523 2.5 16.5L2.5 15.1667C2.5 14.6144 2.94772 14.1667 3.5 14.1667L9.83333 14.1667C10.3856 14.1667 10.8333 14.6144 10.8333 15.1667L10.8333 16.5C10.8333 17.0523 10.3856 17.5 9.83333 17.5L3.5 17.5ZM3.5 11.6667C2.94771 11.6667 2.5 11.219 2.5 10.6667L2.5 9.33333C2.5 8.78105 2.94771 8.33333 3.5 8.33333L17.3333 8.33333C17.8856 8.33333 18.3333 8.78105 18.3333 9.33333L18.3333 10.6667C18.3333 11.219 17.8856 11.6667 17.3333 11.6667L3.5 11.6667ZM10 4.83333C10 5.38562 10.4477 5.83333 11 5.83333L17.3333 5.83333C17.8856 5.83333 18.3333 5.38562 18.3333 4.83333L18.3333 3.5C18.3333 2.94772 17.8856 2.5 17.3333 2.5L11 2.5C10.4477 2.5 10 2.94771 10 3.5L10 4.83333ZM3.5 5.83333C2.94771 5.83333 2.5 5.38562 2.5 4.83333L2.5 3.5C2.5 2.94771 2.94771 2.5 3.5 2.5L6.5 2.5C7.05228 2.5 7.5 2.94772 7.5 3.5L7.5 4.83333C7.5 5.38562 7.05228 5.83333 6.5 5.83333L3.5 5.83333ZM13.3333 16.5C13.3333 17.0523 13.781 17.5 14.3333 17.5L17.3333 17.5C17.8856 17.5 18.3333 17.0523 18.3333 16.5L18.3333 15.1667C18.3333 14.6144 17.8856 14.1667 17.3333 14.1667L14.3333 14.1667C13.781 14.1667 13.3333 14.6144 13.3333 15.1667L13.3333 16.5Z" fill="#080808"/>
</svg>
