<svg width="20" height="20" viewBox="0 0 20 20" fill="none" xmlns="http://www.w3.org/2000/svg">
<path fill-rule="evenodd" clip-rule="evenodd" d="M17.5 7.31008L11.684 1.4941C10.7077 0.517786 9.12479 0.517786 8.14848 1.4941L2.5 7.14258V19.2381H8.33333V14.2381C8.33333 13.3176 9.07953 12.5715 10 12.5715C10.9205 12.5715 11.6667 13.3176 11.6667 14.2381V19.2381H17.5V7.31008ZM9.32699 2.67261L4.16667 7.83293V17.5715H6.66667V14.2381C6.66667 12.3972 8.15905 10.9048 10 10.9048C11.8409 10.9048 13.3333 12.3972 13.3333 14.2381V17.5715H15.8333V8.00044L10.5055 2.67261C10.1801 2.34717 9.65243 2.34717 9.32699 2.67261Z" fill="black"/>
</svg>
