<svg width="20" height="20" viewBox="0 0 20 20" fill="none" xmlns="http://www.w3.org/2000/svg">
<path d="M2.66667 5.33334C2.66667 4.78106 3.11438 4.33334 3.66667 4.33334H16.3333C16.8856 4.33334 17.3333 4.78106 17.3333 5.33334V14.6667C17.3333 15.219 16.8856 15.6667 16.3333 15.6667H3.66667C3.11438 15.6667 2.66667 15.219 2.66667 14.6667V5.33334Z" stroke="#080808" stroke-width="2"/>
<rect x="4.16667" y="5.83334" width="11.6667" height="1.66667" fill="#080808"/>
<rect opacity="0.4" x="4.16667" y="9.16669" width="11.6667" height="1.66667" fill="#080808"/>
<rect opacity="0.4" x="4.16667" y="12.5" width="11.6667" height="1.66667" fill="#080808"/>
<path d="M5 2.50001C5 2.03977 5.3731 1.66667 5.83333 1.66667C6.29357 1.66667 6.66667 2.03977 6.66667 2.50001V3.33334H5V2.50001Z" fill="#080808"/>
<path d="M13.3333 2.5C13.3333 2.03977 13.7064 1.66667 14.1667 1.66667C14.6269 1.66667 15 2.03977 15 2.5V3.33334H13.3333V2.5Z" fill="#080808"/>
</svg>
