<svg width="20" height="20" viewBox="0 0 20 20" fill="none" xmlns="http://www.w3.org/2000/svg">
<path fill-rule="evenodd" clip-rule="evenodd" d="M11.6667 2.49998V2.74154C14.0762 3.45867 15.8333 5.6908 15.8333 8.33331V14.1666H16.6667V15.8333H3.33333V14.1666H4.16667V8.33331C4.16667 5.6908 5.92376 3.45867 8.33333 2.74154V2.49998C8.33333 1.57951 9.07952 0.833313 10 0.833313C10.9205 0.833313 11.6667 1.57951 11.6667 2.49998ZM5.83333 14.1666H14.1667V8.33331C14.1667 6.03213 12.3012 4.16665 10 4.16665C7.69881 4.16665 5.83333 6.03213 5.83333 8.33331V14.1666ZM11.6667 17.5V16.6666H8.33333V17.5C8.33333 18.4205 9.07952 19.1666 10 19.1666C10.9205 19.1666 11.6667 18.4205 11.6667 17.5Z" fill="black"/>
</svg>
