<svg width="20" height="20" viewBox="0 0 20 20" fill="#808080" xmlns="http://www.w3.org/2000/svg">
<mask id="mask0" style="mask-type:alpha" maskUnits="userSpaceOnUse" x="1" y="1" width="18" height="18">
<circle cx="10" cy="9.99999" r="8.33333" fill="#080808"/>
</mask>
<g mask="url(#mask0)">
<circle cx="10" cy="9.99999" r="8.33333" fill="#080808"/>
<path d="M13.6987 12.4467C13.6987 12.9467 13.5737 13.4167 13.3237 13.8567C13.0837 14.2967 12.7237 14.6667 12.2437 14.9667C11.7737 15.2667 11.2137 15.4467 10.5637 15.5067V16.7217H9.58872V15.5067C8.64872 15.4167 7.88872 15.1217 7.30872 14.6217C6.72872 14.1217 6.43872 13.4617 6.43872 12.6417H8.26872C8.29872 13.0317 8.42372 13.3567 8.64372 13.6167C8.86372 13.8667 9.17872 14.0267 9.58872 14.0967V10.7967C8.91872 10.6267 8.37372 10.4567 7.95372 10.2867C7.53372 10.1067 7.17372 9.82668 6.87372 9.44668C6.58372 9.06668 6.43872 8.54668 6.43872 7.88668C6.43872 7.05668 6.72872 6.37168 7.30872 5.83168C7.88872 5.28168 8.64872 4.96168 9.58872 4.87168V3.65668H10.5637V4.87168C11.4437 4.95168 12.1487 5.23168 12.6787 5.71168C13.2187 6.18168 13.5237 6.83168 13.5937 7.66168H11.7637C11.7337 7.35168 11.6137 7.07668 11.4037 6.83668C11.1937 6.58668 10.9137 6.41668 10.5637 6.32668V9.56668C11.2337 9.72668 11.7787 9.89668 12.1987 10.0767C12.6187 10.2467 12.9737 10.5217 13.2637 10.9017C13.5537 11.2717 13.6987 11.7867 13.6987 12.4467ZM8.17872 7.79668C8.17872 8.20668 8.29872 8.52668 8.53872 8.75668C8.78872 8.98668 9.13872 9.17168 9.58872 9.31168V6.28168C9.15872 6.33168 8.81372 6.48668 8.55372 6.74668C8.30372 7.00668 8.17872 7.35668 8.17872 7.79668ZM10.5637 14.0967C11.0037 14.0267 11.3487 13.8517 11.5987 13.5717C11.8487 13.2817 11.9737 12.9367 11.9737 12.5367C11.9737 12.1367 11.8487 11.8267 11.5987 11.6067C11.3587 11.3767 11.0137 11.1917 10.5637 11.0517V14.0967Z" fill="white"/>
</g>
</svg>
